<svg width="120" height="119" viewBox="0 0 120 119" fill="none" xmlns="http://www.w3.org/2000/svg">
<path d="M68.4658 8.72465C67.8941 8.62804 67.403 8.48312 66.9844 8.2738C66.5657 8.06447 66.2276 7.80686 65.9619 7.50897C65.6962 7.21109 65.5111 6.87294 65.3983 6.49454C65.2856 6.11615 65.2615 5.72166 65.3178 5.29496L66.8636 5.54454C66.7992 6.63142 67.403 7.2755 68.6831 7.48482C68.9085 7.51702 69.1179 7.53311 69.3272 7.51701C69.5365 7.5009 69.7217 7.45261 69.8908 7.38015C70.0598 7.3077 70.1967 7.19499 70.3094 7.05812C70.4221 6.92125 70.4946 6.74412 70.5268 6.54285C70.567 6.31742 70.5429 6.13226 70.4704 5.97124C70.398 5.81022 70.2692 5.66529 70.1001 5.53648C69.931 5.40766 69.7217 5.2869 69.4721 5.16614C69.2225 5.05343 68.9407 4.93265 68.6268 4.80384C68.2564 4.65087 67.9102 4.49791 67.5801 4.33689C67.2501 4.17587 66.9763 3.99071 66.7509 3.76528C66.5255 3.5479 66.3564 3.29026 66.2517 2.99237C66.1471 2.69449 66.1229 2.34024 66.1954 1.92964C66.2598 1.53514 66.3886 1.20507 66.5899 0.939387C66.7911 0.673705 67.0407 0.464381 67.3467 0.311413C67.6526 0.158445 67.9988 0.0618204 68.3852 0.0215656C68.7717 -0.0186892 69.1903 -0.00258921 69.6331 0.0698694C70.6073 0.230889 71.3238 0.569045 71.7908 1.09236C72.2578 1.61567 72.4671 2.26778 72.4268 3.04067L70.9213 2.79916C70.9293 2.38051 70.8005 2.04237 70.5429 1.76863C70.2853 1.4949 69.9069 1.32584 69.4158 1.24533C68.9488 1.17287 68.5624 1.19701 68.2564 1.33388C67.9505 1.47074 67.7653 1.70422 67.717 2.04236C67.6848 2.23559 67.709 2.40465 67.7814 2.54152C67.8539 2.68644 67.9827 2.81524 68.1437 2.93601C68.3128 3.05677 68.5141 3.1695 68.7636 3.27416C69.0052 3.37882 69.2869 3.4996 69.5929 3.61231C69.9632 3.75723 70.3175 3.91019 70.6556 4.07926C70.9938 4.24833 71.2755 4.4496 71.5251 4.68308C71.7666 4.91656 71.9438 5.19835 72.0645 5.52038C72.1772 5.84242 72.2014 6.22886 72.1289 6.67167C72.0645 7.09032 71.9196 7.44456 71.7022 7.7344C71.4849 8.02423 71.2192 8.2577 70.8971 8.42677C70.5751 8.59584 70.2128 8.7005 69.8022 8.75686C69.3675 8.80517 68.9327 8.79711 68.4658 8.72465Z" fill="#E73D21"/>
<path d="M76.1141 10.6007C75.5345 10.4155 75.0434 10.1337 74.6408 9.7795C74.2383 9.41721 73.9243 8.99856 73.7069 8.52355C73.4895 8.04854 73.3768 7.52523 73.3526 6.96166C73.3285 6.3981 73.4251 5.81844 73.6183 5.21462C73.8116 4.61885 74.0772 4.10358 74.4234 3.65273C74.7696 3.20188 75.1641 2.84765 75.623 2.58196C76.0739 2.31628 76.573 2.15526 77.1205 2.0989C77.6599 2.04254 78.2315 2.11499 78.8273 2.30821C79.2862 2.45313 79.6807 2.64637 80.0108 2.87985C80.3489 3.11332 80.6146 3.379 80.8159 3.67688C81.0574 4.03112 81.2104 4.41756 81.2909 4.82816C81.3634 5.23876 81.3634 5.66548 81.2748 6.10023L79.7934 5.61717C79.8578 5.16631 79.7773 4.74766 79.5438 4.37731C79.3104 3.99892 78.932 3.72519 78.4006 3.55612C78.0222 3.43536 77.6599 3.3951 77.3298 3.45146C76.9917 3.49976 76.6857 3.62857 76.404 3.82179C76.1222 4.01502 75.8726 4.28072 75.6633 4.5947C75.454 4.90869 75.2768 5.28708 75.14 5.69768C75.0031 6.11633 74.9307 6.52691 74.9307 6.91336C74.9307 7.29981 74.987 7.65405 75.1078 7.97609C75.2285 8.29813 75.4056 8.57187 75.6472 8.8134C75.8887 9.05493 76.1866 9.224 76.5408 9.34476C76.8387 9.44138 77.1205 9.48163 77.3781 9.46552C77.6358 9.44942 77.8692 9.38502 78.0866 9.27231C78.304 9.1596 78.4892 9.02272 78.6502 8.83755C78.8112 8.66043 78.94 8.45111 79.0447 8.20958L80.5341 8.69264C80.3892 9.08714 80.1718 9.44137 79.8739 9.76341C79.576 10.0854 79.246 10.335 78.8756 10.5121C78.0866 10.9147 77.1688 10.9389 76.1141 10.6007Z" fill="#E73D21"/>
<path d="M84.1813 4.44141L87.7076 6.22872C88.0538 6.40584 88.3517 6.61515 88.6012 6.86473C88.8428 7.11431 89.028 7.37999 89.1487 7.66982C89.2695 7.95966 89.3258 8.25755 89.3097 8.57959C89.2936 8.90162 89.2131 9.22366 89.0441 9.55375C88.8186 10.0046 88.5127 10.3266 88.1424 10.536C87.764 10.7453 87.297 10.8017 86.7334 10.7051L86.7173 10.7372C87.0555 11.0593 87.2407 11.3894 87.289 11.7195C87.3373 12.0495 87.2567 12.4602 87.0635 12.9432C86.8461 13.5229 86.6771 13.9737 86.5483 14.2877C86.4194 14.6017 86.4033 14.8191 86.4758 14.9237L86.4436 14.9962L85.0347 14.2797C84.9703 14.175 85.0025 13.9657 85.1232 13.6678C85.244 13.3699 85.4131 12.9593 85.6304 12.436C85.8156 11.969 85.8478 11.5826 85.7351 11.2767C85.6224 10.9627 85.3406 10.697 84.8898 10.4716L83.2876 9.65841L81.774 12.6373L80.3893 11.9368L84.1813 4.44141ZM83.819 8.58765L85.6304 9.50544C86.0732 9.73087 86.4597 9.79528 86.7898 9.70672C87.1199 9.61816 87.3695 9.4008 87.5466 9.04656C87.7398 8.66816 87.7801 8.33 87.6754 8.02407C87.5707 7.71813 87.297 7.45246 86.8461 7.22703L84.9864 6.28506L83.819 8.58765Z" fill="#E73D21"/>
<path d="M90.163 17.8379C89.6558 17.4676 89.2533 17.0409 88.9715 16.5659C88.6897 16.0909 88.5126 15.5837 88.4562 15.0604C88.3998 14.5371 88.4481 13.9976 88.6092 13.4582C88.7702 12.9188 89.0359 12.3874 89.3982 11.8883C89.7685 11.3811 90.1871 10.9624 90.6622 10.6484C91.1291 10.3344 91.6202 10.1171 92.1436 10.0205C92.6669 9.92384 93.1902 9.9319 93.7296 10.0527C94.269 10.1734 94.8004 10.423 95.3076 10.7933C95.8148 11.1637 96.2093 11.5904 96.4991 12.0734C96.7889 12.5565 96.95 13.0557 97.0144 13.579C97.0707 14.1023 97.0224 14.6337 96.8614 15.1811C96.7004 15.7286 96.4347 16.2519 96.0644 16.7591C95.694 17.2663 95.2754 17.6769 94.8084 17.9909C94.3415 18.3129 93.8423 18.5223 93.327 18.6269C92.8118 18.7316 92.2804 18.7235 91.7329 18.5947C91.2016 18.4579 90.6702 18.2083 90.163 17.8379ZM90.952 16.7833C91.2821 17.0248 91.6283 17.1778 91.9745 17.2422C92.3207 17.3066 92.6588 17.2905 92.9889 17.1939C93.319 17.0973 93.633 16.9362 93.9389 16.6947C94.2448 16.4532 94.5266 16.1633 94.7843 15.8091C95.0419 15.4549 95.2351 15.1006 95.372 14.7303C95.5088 14.368 95.5733 14.0057 95.5652 13.6595C95.5572 13.3133 95.4766 12.9832 95.3156 12.6692C95.1546 12.3552 94.905 12.0735 94.5749 11.8319C94.2368 11.5823 93.8906 11.4294 93.5444 11.373C93.1982 11.3167 92.852 11.3328 92.5139 11.4374C92.1757 11.534 91.8537 11.7031 91.5478 11.9446C91.2418 12.1862 90.952 12.484 90.7024 12.8302C90.4448 13.1845 90.2516 13.5387 90.1228 13.9091C89.9939 14.2794 89.9295 14.6256 89.9456 14.9718C89.9617 15.318 90.0503 15.64 90.2113 15.954C90.3723 16.268 90.6058 16.5337 90.952 16.7833Z" fill="#E73D21"/>
<path d="M100.154 14.8518L101.265 15.9467L96.3383 20.9464L99.2446 23.8125L98.2866 24.7867L94.2772 20.8337L100.154 14.8518Z" fill="#E73D21"/>
<path d="M105.444 20.2776L106.402 21.5013L100.879 25.8408L103.399 29.0451L102.328 29.8904L98.842 25.4624L105.444 20.2776Z" fill="#E73D21"/>
<path d="M115.95 37.7883L116.957 40.9363C117.142 41.5159 117.206 42.0634 117.158 42.5706C117.11 43.0778 116.957 43.5448 116.699 43.9715C116.441 44.3982 116.095 44.7685 115.652 45.0906C115.21 45.4126 114.686 45.6702 114.074 45.8634C113.479 46.0567 112.915 46.1452 112.376 46.1452C111.836 46.1372 111.345 46.0406 110.902 45.8393C110.46 45.638 110.065 45.3321 109.727 44.9295C109.389 44.527 109.123 44.0198 108.93 43.424L107.948 40.3646L115.95 37.7883ZM110.178 42.9007C110.427 43.6897 110.854 44.1888 111.45 44.4062C112.046 44.6236 112.762 44.5994 113.599 44.3257C114.01 44.1888 114.38 44.0278 114.686 43.8346C115 43.6414 115.25 43.416 115.435 43.1503C115.62 42.8846 115.733 42.5948 115.773 42.2727C115.813 41.9507 115.773 41.5884 115.644 41.1939L115.161 39.6803L109.711 41.4274L110.178 42.9007Z" fill="#E73D21"/>
<path d="M118.583 45.9438L118.793 47.5299L114.904 49.0515C114.654 49.1481 114.373 49.2447 114.067 49.3414C113.761 49.438 113.471 49.5265 113.205 49.599C112.891 49.6876 112.569 49.7681 112.247 49.8486V49.8727C112.593 49.8808 112.931 49.8888 113.278 49.9049C113.567 49.921 113.873 49.9371 114.195 49.9452C114.517 49.9532 114.815 49.9774 115.073 50.0015L119.187 50.4846L119.388 52.0062L115.556 53.544C115.315 53.6406 115.033 53.7291 114.719 53.8338C114.405 53.9304 114.107 54.027 113.833 54.1075C113.503 54.2041 113.173 54.3007 112.851 54.3974V54.4215C113.181 54.4215 113.519 54.4295 113.857 54.4376C114.147 54.4457 114.445 54.4537 114.767 54.4698C115.081 54.4859 115.379 54.5101 115.645 54.5423L119.791 54.9931L120 56.5792L111.378 55.3876L111.176 53.8821L115.379 52.2397C115.588 52.1511 115.83 52.0626 116.112 51.974C116.393 51.8854 116.659 51.8049 116.917 51.7325C117.207 51.6439 117.504 51.5634 117.818 51.4749V51.4507C117.496 51.4507 117.19 51.4426 116.884 51.4426C116.619 51.4426 116.337 51.4346 116.047 51.4185C115.757 51.4024 115.492 51.3863 115.274 51.3622L110.782 50.8227L110.573 49.277L118.583 45.9438Z" fill="#E73D21"/>
<path d="M111.184 61.869C111.216 61.241 111.353 60.6774 111.595 60.1702C111.836 59.6711 112.166 59.2524 112.569 58.9143C112.979 58.5761 113.454 58.3266 113.994 58.1575C114.533 57.9965 115.121 57.924 115.741 57.9562C116.369 57.9884 116.949 58.1092 117.472 58.3266C117.995 58.5439 118.438 58.8418 118.808 59.2202C119.179 59.5986 119.46 60.0414 119.654 60.5647C119.847 61.088 119.935 61.6597 119.903 62.2957C119.871 62.9317 119.734 63.4872 119.485 63.9864C119.235 64.4855 118.913 64.9042 118.51 65.2423C118.108 65.5805 117.633 65.8301 117.093 65.9991C116.554 66.1601 115.966 66.2326 115.33 66.2004C114.71 66.1682 114.131 66.0474 113.607 65.8301C113.084 65.6127 112.633 65.3148 112.263 64.9364C111.893 64.558 111.611 64.1152 111.418 63.5919C111.232 63.0766 111.152 62.505 111.184 61.869ZM112.496 61.9495C112.472 62.3601 112.537 62.7304 112.673 63.0525C112.81 63.3745 113.012 63.6482 113.269 63.8737C113.527 64.0991 113.841 64.2682 114.211 64.397C114.582 64.5178 114.976 64.5902 115.411 64.6144C115.846 64.6385 116.256 64.6063 116.635 64.5177C117.013 64.4292 117.351 64.2923 117.641 64.091C117.931 63.8978 118.156 63.6402 118.333 63.3343C118.51 63.0283 118.607 62.666 118.623 62.2554C118.647 61.8368 118.583 61.4664 118.438 61.1363C118.293 60.8143 118.092 60.5406 117.826 60.3071C117.56 60.0817 117.238 59.9045 116.868 59.7757C116.498 59.6469 116.095 59.5744 115.66 59.5503C115.226 59.5261 114.823 59.5664 114.445 59.655C114.066 59.7435 113.736 59.8884 113.454 60.0897C113.173 60.291 112.947 60.5406 112.778 60.8545C112.609 61.1685 112.521 61.5308 112.496 61.9495Z" fill="#E73D21"/>
<path d="M119.179 68.7126L118.841 70.2745L113.954 72.0618C113.745 72.1343 113.519 72.1987 113.278 72.2711C113.028 72.3436 112.803 72.408 112.585 72.4644C112.336 72.5288 112.078 72.6012 111.828 72.6656L111.82 72.6978C112.07 72.7381 112.32 72.7783 112.569 72.8186C112.787 72.8508 113.012 72.891 113.262 72.9313C113.503 72.9796 113.728 73.0199 113.938 73.0682L118.044 73.9618L117.73 75.403L109.534 73.6156L109.872 72.0538L114.735 70.2745C114.944 70.194 115.17 70.1215 115.419 70.0571C115.669 69.9847 115.902 69.9202 116.112 69.8639C116.361 69.7995 116.619 69.727 116.868 69.6626L116.876 69.6385C116.627 69.5902 116.377 69.5499 116.128 69.5096C115.91 69.4774 115.685 69.4372 115.435 69.3969C115.194 69.3486 114.968 69.3084 114.759 69.2601L110.661 68.3664L110.975 66.9253L119.179 68.7126Z" fill="#E73D21"/>
<path d="M101.233 89.7089C101.579 89.2419 101.934 88.8716 102.312 88.5898C102.69 88.316 103.069 88.1228 103.455 88.0262C103.842 87.9296 104.228 87.9135 104.607 87.986C104.985 88.0584 105.363 88.2194 105.718 88.461L104.792 89.725C103.85 89.1775 103.004 89.419 102.24 90.4656C102.103 90.6508 101.998 90.836 101.917 91.0292C101.837 91.2224 101.789 91.4076 101.781 91.5928C101.773 91.778 101.805 91.947 101.877 92.108C101.95 92.2691 102.07 92.414 102.24 92.5347C102.425 92.6716 102.602 92.736 102.779 92.7441C102.956 92.7521 103.141 92.7038 103.334 92.6153C103.528 92.5267 103.729 92.3898 103.946 92.2208C104.164 92.0517 104.397 91.8504 104.655 91.625C104.961 91.3593 105.259 91.1258 105.548 90.9004C105.838 90.675 106.136 90.522 106.434 90.4173C106.732 90.3127 107.038 90.2805 107.352 90.3207C107.666 90.361 107.988 90.5059 108.326 90.7555C108.648 90.989 108.882 91.2627 109.026 91.5606C109.171 91.8585 109.244 92.1805 109.244 92.5267C109.236 92.8648 109.163 93.2191 109.026 93.5814C108.89 93.9437 108.68 94.3059 108.415 94.6682C107.835 95.4572 107.199 95.9483 106.523 96.1255C105.846 96.3026 105.17 96.1979 104.502 95.8034L105.404 94.5797C105.774 94.7729 106.136 94.8212 106.49 94.7085C106.845 94.5958 107.175 94.3462 107.465 93.9437C107.746 93.5653 107.891 93.203 107.915 92.8648C107.932 92.5267 107.811 92.261 107.537 92.0597C107.376 91.947 107.223 91.8907 107.062 91.8907C106.901 91.8907 106.732 91.939 106.547 92.0356C106.362 92.1322 106.168 92.261 105.959 92.4301C105.75 92.5991 105.524 92.7924 105.275 93.0178C104.977 93.2835 104.679 93.525 104.373 93.7504C104.067 93.9678 103.761 94.1369 103.439 94.2496C103.117 94.3623 102.787 94.3945 102.449 94.3462C102.111 94.2979 101.756 94.1449 101.394 93.8793C101.056 93.6297 100.806 93.3398 100.645 93.0178C100.484 92.6958 100.396 92.3496 100.396 91.9873C100.388 91.625 100.46 91.2466 100.605 90.8602C100.75 90.4737 100.959 90.0792 101.233 89.7089Z" fill="#E73D21"/>
<path d="M96.0967 95.6674C96.5234 95.2407 96.9984 94.9267 97.4976 94.7254C98.0048 94.5241 98.52 94.4436 99.0433 94.4678C99.5666 94.4919 100.082 94.6208 100.597 94.8623C101.104 95.1038 101.587 95.442 102.03 95.8928C102.473 96.3356 102.811 96.8106 103.061 97.3178C103.302 97.825 103.439 98.3483 103.471 98.8717C103.504 99.395 103.415 99.9102 103.222 100.426C103.029 100.933 102.707 101.408 102.264 101.851C101.926 102.189 101.571 102.454 101.209 102.648C100.847 102.841 100.493 102.962 100.13 103.01C99.7035 103.066 99.2929 103.034 98.8904 102.913C98.4878 102.792 98.1094 102.599 97.7632 102.317L98.8662 101.214C99.2366 101.48 99.6472 101.593 100.082 101.553C100.517 101.512 100.943 101.303 101.33 100.909C101.612 100.627 101.805 100.321 101.909 99.9988C102.014 99.6768 102.046 99.3467 101.998 99.0005C101.95 98.6623 101.829 98.3242 101.644 97.9861C101.459 97.6479 101.209 97.3259 100.895 97.0199C100.581 96.706 100.251 96.4564 99.9048 96.2792C99.5586 96.1021 99.2205 95.9894 98.8743 95.9572C98.5361 95.917 98.206 95.9572 97.884 96.0619C97.562 96.1665 97.2721 96.3517 97.0064 96.6174C96.781 96.8428 96.62 97.0682 96.5234 97.3098C96.4268 97.5513 96.3704 97.7848 96.3704 98.0263C96.3704 98.2678 96.4107 98.4933 96.4992 98.7267C96.5878 98.9602 96.7166 99.1615 96.8776 99.3628L95.7666 100.474C95.4768 100.168 95.2594 99.8056 95.1145 99.395C94.9615 98.9844 94.8971 98.5738 94.8971 98.1712C94.9132 97.2856 95.3077 96.4564 96.0967 95.6674Z" fill="#E73D21"/>
<path d="M97.9405 105.642L94.7523 107.985C94.4383 108.218 94.1163 108.387 93.7862 108.492C93.4561 108.597 93.1341 108.645 92.8201 108.621C92.5061 108.597 92.2163 108.508 91.9345 108.355C91.6527 108.202 91.4031 107.977 91.1858 107.679C90.8879 107.276 90.7349 106.858 90.7188 106.431C90.7027 106.004 90.8637 105.561 91.2099 105.094L91.1858 105.07C90.751 105.223 90.3726 105.247 90.0506 105.135C89.7285 105.022 89.3984 104.772 89.0603 104.378C88.6416 103.919 88.3196 103.565 88.0942 103.315C87.8688 103.066 87.6916 102.945 87.5628 102.961L87.5145 102.897L88.7866 101.963C88.9073 101.955 89.0764 102.075 89.2938 102.317C89.5112 102.558 89.7929 102.897 90.1633 103.323C90.4934 103.694 90.8235 103.903 91.1536 103.935C91.4836 103.975 91.854 103.839 92.2565 103.541L93.6977 102.478L91.7252 99.7889L92.9811 98.8711L97.9405 105.642ZM94.4061 103.452L92.7718 104.652C92.3693 104.942 92.1358 105.256 92.0713 105.594C92.0069 105.924 92.0875 106.254 92.3209 106.568C92.5705 106.906 92.8523 107.099 93.1743 107.147C93.4964 107.196 93.8506 107.067 94.2612 106.769L95.9439 105.537L94.4061 103.452Z" fill="#E73D21"/>
<path d="M83.2874 104.934C83.851 104.644 84.4065 104.483 84.962 104.443C85.5175 104.403 86.0409 104.475 86.54 104.66C87.0392 104.845 87.49 105.135 87.9006 105.522C88.3112 105.908 88.6655 106.383 88.9473 106.939C89.2371 107.502 89.4142 108.066 89.4867 108.621C89.5591 109.177 89.5269 109.716 89.382 110.223C89.2371 110.731 88.9956 111.198 88.6413 111.632C88.2871 112.059 87.8282 112.421 87.2646 112.711C86.701 113.001 86.1455 113.162 85.59 113.194C85.0345 113.227 84.5112 113.154 84.012 112.977C83.5209 112.792 83.062 112.51 82.6514 112.124C82.2408 111.737 81.8866 111.262 81.5967 110.698C81.315 110.143 81.1378 109.587 81.0654 109.024C80.9929 108.46 81.0251 107.921 81.17 107.414C81.315 106.907 81.5565 106.432 81.9107 106.005C82.273 105.586 82.7319 105.224 83.2874 104.934ZM83.8832 106.118C83.5129 106.303 83.223 106.544 83.0137 106.818C82.8044 107.092 82.6675 107.406 82.6031 107.744C82.5387 108.082 82.5467 108.436 82.6192 108.815C82.6917 109.193 82.8285 109.579 83.0298 109.966C83.2311 110.352 83.4565 110.69 83.7222 110.98C83.9879 111.27 84.2777 111.488 84.5917 111.64C84.9057 111.793 85.2358 111.866 85.59 111.866C85.9442 111.866 86.3065 111.769 86.6688 111.576C87.0472 111.383 87.3371 111.149 87.5464 110.86C87.7557 110.578 87.8926 110.264 87.957 109.918C88.0214 109.571 88.0134 109.209 87.9409 108.823C87.8684 108.436 87.7316 108.05 87.5303 107.663C87.329 107.277 87.0955 106.939 86.8299 106.657C86.5642 106.375 86.2743 106.166 85.9603 106.021C85.6464 105.876 85.3163 105.812 84.962 105.82C84.6158 105.828 84.2536 105.924 83.8832 106.118Z" fill="#E73D21"/>
<path d="M81.4196 115.207L79.9463 115.698L77.7243 109.04L73.8518 110.336L73.417 109.04L78.7628 107.252L81.4196 115.207Z" fill="#E73D21"/>
<path d="M74.174 117.469L72.6444 117.767L71.2837 110.875L67.2824 111.664L67.0167 110.328L72.5477 109.233L74.174 117.469Z" fill="#E73D21"/>
<path d="M53.8534 118.886L50.5927 118.371C49.9889 118.274 49.4737 118.089 49.047 117.815C48.6122 117.542 48.266 117.195 48.0003 116.777C47.7346 116.358 47.5656 115.875 47.477 115.344C47.3885 114.812 47.3965 114.217 47.5012 113.589C47.5978 112.977 47.7749 112.429 48.0164 111.946C48.266 111.471 48.58 111.077 48.9584 110.771C49.3368 110.465 49.7876 110.255 50.2949 110.135C50.8101 110.014 51.3737 110.006 52.0017 110.102L55.1737 110.61L53.8534 118.886ZM51.889 111.431C51.0758 111.302 50.4317 111.455 49.9728 111.882C49.5139 112.316 49.216 112.961 49.0711 113.83C49.0067 114.265 48.9826 114.659 49.0148 115.03C49.047 115.4 49.1355 115.722 49.2885 116.004C49.4415 116.286 49.6508 116.519 49.9165 116.704C50.1821 116.889 50.5283 117.01 50.9389 117.075L52.5089 117.324L53.4106 111.672L51.889 111.431Z" fill="#E73D21"/>
<path d="M45.3596 117.55L43.846 117.018L44.2485 112.864C44.2807 112.598 44.321 112.3 44.3693 111.986C44.4176 111.672 44.474 111.375 44.5303 111.101C44.5947 110.779 44.6591 110.457 44.7396 110.135L44.7155 110.127C44.5545 110.433 44.3934 110.73 44.2244 111.028C44.0795 111.278 43.9265 111.552 43.7735 111.833C43.6125 112.115 43.4676 112.373 43.3227 112.59L41.0281 116.044L39.579 115.537L39.9413 111.423C39.9654 111.165 40.0057 110.867 40.062 110.545C40.1184 110.223 40.1667 109.917 40.223 109.636C40.2875 109.297 40.3438 108.959 40.4082 108.629L40.3841 108.621C40.2311 108.919 40.0781 109.217 39.9171 109.507C39.7802 109.764 39.6353 110.03 39.4824 110.304C39.3294 110.577 39.1764 110.827 39.0235 111.061L36.7531 114.555L35.2395 114.023L40.1989 106.874L41.632 107.373L41.1972 111.866C41.1811 112.091 41.1489 112.349 41.1087 112.639C41.0604 112.928 41.0121 113.202 40.9637 113.468C40.9074 113.766 40.851 114.072 40.7866 114.386L40.8108 114.394C40.9557 114.112 41.1006 113.838 41.2455 113.564C41.3663 113.331 41.5032 113.081 41.6481 112.824C41.793 112.566 41.9299 112.349 42.0506 112.155L44.5625 108.388L46.0278 108.903L45.3596 117.55Z" fill="#E73D21"/>
<path d="M34.515 103.758C35.0625 104.072 35.5053 104.451 35.8354 104.894C36.1735 105.336 36.3989 105.819 36.5116 106.335C36.6243 106.85 36.6324 107.389 36.5358 107.945C36.4392 108.5 36.2298 109.056 35.9239 109.595C35.6099 110.143 35.2396 110.602 34.8048 110.964C34.3701 111.326 33.9031 111.592 33.4039 111.753C32.9048 111.914 32.3734 111.962 31.8179 111.898C31.2624 111.834 30.7149 111.648 30.1675 111.334C29.62 111.02 29.1772 110.642 28.8471 110.191C28.517 109.74 28.2916 109.265 28.1708 108.75C28.0581 108.235 28.042 107.703 28.1467 107.14C28.2433 106.584 28.4526 106.029 28.7666 105.481C29.0806 104.942 29.4509 104.483 29.8776 104.121C30.3043 103.758 30.7793 103.493 31.2785 103.332C31.7857 103.171 32.309 103.122 32.8645 103.187C33.4201 103.251 33.9675 103.444 34.515 103.758ZM33.8548 104.894C33.4925 104.684 33.1383 104.572 32.7921 104.547C32.4379 104.523 32.1077 104.58 31.7938 104.708C31.4798 104.837 31.1819 105.038 30.9001 105.312C30.6264 105.578 30.3768 105.908 30.1594 106.286C29.942 106.665 29.7891 107.043 29.6925 107.422C29.5959 107.8 29.5717 108.162 29.612 108.508C29.6522 108.855 29.773 109.177 29.9743 109.467C30.1675 109.764 30.4493 110.014 30.8035 110.215C31.1658 110.425 31.5281 110.537 31.8823 110.561C32.2366 110.586 32.5747 110.521 32.8967 110.392C33.2188 110.256 33.5247 110.054 33.8065 109.781C34.0883 109.507 34.3379 109.185 34.5553 108.806C34.7726 108.428 34.9256 108.05 35.0141 107.671C35.1027 107.293 35.1269 106.939 35.0705 106.592C35.0141 106.246 34.8934 105.932 34.7002 105.642C34.4989 105.352 34.2171 105.103 33.8548 104.894Z" fill="#E73D21"/>
<path d="M24.7892 107.776L23.5494 106.762L24.1773 101.593C24.2095 101.376 24.2498 101.142 24.2981 100.892C24.3464 100.643 24.3947 100.409 24.435 100.192C24.4913 99.9344 24.5396 99.6768 24.596 99.4192L24.5718 99.395C24.4189 99.6043 24.274 99.8056 24.129 100.007C24.0002 100.184 23.8634 100.369 23.7104 100.57C23.5574 100.772 23.4206 100.949 23.2837 101.11L20.6188 104.362L19.4756 103.429L24.7812 96.9395L26.021 97.9539L25.4011 103.09C25.3769 103.316 25.3367 103.549 25.2884 103.799C25.2401 104.057 25.1918 104.29 25.1435 104.507C25.0871 104.765 25.0388 105.023 24.9824 105.28L24.9985 105.296C25.1515 105.095 25.3045 104.894 25.4494 104.693C25.5782 104.515 25.7151 104.33 25.868 104.129C26.021 103.936 26.1579 103.751 26.2947 103.59L28.9516 100.345L30.0948 101.279L24.7892 107.776Z" fill="#E73D21"/>
<path d="M14.1863 82.2781C14.4439 82.7934 14.6211 83.2845 14.6935 83.7434C14.774 84.2023 14.766 84.629 14.6855 85.0154C14.5969 85.4019 14.4359 85.7561 14.2024 86.0621C13.9609 86.368 13.6549 86.6337 13.2846 86.835L12.5761 85.4341C13.4939 84.8464 13.6549 83.9769 13.0753 82.8175C12.9706 82.6162 12.8579 82.4391 12.721 82.2781C12.5842 82.1171 12.4392 81.9963 12.2782 81.8997C12.1172 81.8112 11.9481 81.7548 11.771 81.7548C11.5939 81.7468 11.4087 81.787 11.2236 81.8836C11.0223 81.9883 10.8774 82.1171 10.7969 82.2701C10.7163 82.423 10.668 82.6082 10.66 82.8256C10.6519 83.043 10.6761 83.2845 10.7405 83.5502C10.7968 83.8239 10.8693 84.1218 10.9498 84.4519C11.0464 84.8383 11.1269 85.2167 11.1913 85.571C11.2558 85.9333 11.2638 86.2633 11.2236 86.5773C11.1833 86.8913 11.0706 87.1812 10.8935 87.4388C10.7163 87.7045 10.4426 87.9299 10.0642 88.1151C9.70997 88.2922 9.36378 88.3807 9.02563 88.3807C8.68749 88.3807 8.37352 88.3002 8.06758 88.1392C7.76164 87.9782 7.47986 87.7608 7.22223 87.471C6.9646 87.1811 6.73112 86.835 6.52984 86.4324C6.08704 85.5549 5.93408 84.7739 6.07899 84.0896C6.22391 83.4053 6.62645 82.8497 7.27858 82.4311L7.96291 83.7917C7.62477 84.0332 7.4235 84.3392 7.35909 84.7015C7.29468 85.0718 7.3752 85.4743 7.60062 85.9171C7.818 86.3358 8.06758 86.6337 8.35742 86.8028C8.64725 86.9718 8.94514 86.9799 9.25107 86.8269C9.42819 86.7383 9.54896 86.6256 9.61336 86.4807C9.68582 86.3358 9.71802 86.1587 9.70997 85.9574C9.70997 85.7561 9.67777 85.5226 9.62141 85.257C9.56505 84.9913 9.49259 84.7015 9.40403 84.3875C9.29937 84.001 9.21887 83.6226 9.16251 83.2523C9.0981 82.8819 9.0981 82.5277 9.13836 82.1976C9.18667 81.8595 9.29937 81.5535 9.49259 81.2718C9.68581 80.99 9.9837 80.7484 10.3862 80.5391C10.7646 80.3459 11.1269 80.2573 11.4973 80.2573C11.8596 80.2573 12.2058 80.3378 12.5278 80.4989C12.8498 80.6599 13.1558 80.8934 13.4376 81.1912C13.7194 81.4891 13.9689 81.8675 14.1863 82.2781Z" fill="#E73D21"/>
<path d="M11.1914 75.0166C11.3846 75.5962 11.449 76.1517 11.3927 76.6912C11.3363 77.2306 11.1833 77.7297 10.9257 78.1806C10.6681 78.6395 10.3138 79.042 9.87102 79.3882C9.42822 79.7344 8.90491 80.0081 8.30914 80.2014C7.71336 80.3946 7.1337 80.4832 6.57014 80.4751C6.00657 80.459 5.48325 80.3543 5.00019 80.137C4.51713 79.9276 4.09849 79.6217 3.72815 79.2111C3.35781 78.8005 3.08407 78.3094 2.89084 77.7136C2.73788 77.2547 2.66542 76.82 2.65737 76.4174C2.64932 76.0068 2.70567 75.6365 2.82643 75.2983C2.97135 74.8958 3.18873 74.5416 3.47856 74.2356C3.76839 73.9297 4.11459 73.6881 4.51714 73.4949L5.00019 74.9763C4.59764 75.1856 4.30781 75.4996 4.14679 75.9102C3.97772 76.3208 3.98578 76.7878 4.15485 77.3191C4.27561 77.6975 4.46078 78.0035 4.70231 78.245C4.94384 78.4865 5.22562 78.6636 5.55571 78.7763C5.87775 78.8891 6.232 78.9374 6.61844 78.9213C7.00489 78.9052 7.40743 78.8327 7.81803 78.6958C8.23668 78.559 8.60702 78.3738 8.92906 78.1484C9.24305 77.9229 9.50068 77.6653 9.68585 77.3755C9.87103 77.0857 9.99179 76.7797 10.0401 76.4496C10.0884 76.1195 10.0562 75.7733 9.93543 75.4111C9.83882 75.1132 9.70195 74.8636 9.53288 74.6623C9.36381 74.461 9.17865 74.3081 8.96127 74.2034C8.75195 74.0987 8.51847 74.0263 8.27694 74.0021C8.03541 73.978 7.79388 73.9941 7.53625 74.0504L7.04514 72.561C7.44769 72.4402 7.86634 72.408 8.30109 72.4644C8.73584 72.5208 9.13033 72.6335 9.49263 72.8267C10.2816 73.2292 10.8452 73.9619 11.1914 75.0166Z" fill="#E73D21"/>
<path d="M1.4578 72.1181L0.821777 68.2134C0.757369 67.8269 0.757366 67.4646 0.805672 67.1184C0.862028 66.7722 0.966686 66.4663 1.12771 66.2006C1.28872 65.935 1.50611 65.7095 1.76374 65.5324C2.02942 65.3553 2.34341 65.2345 2.7057 65.1701C3.20486 65.0896 3.64766 65.1379 4.0341 65.3231C4.42055 65.5002 4.74258 65.8545 5.00021 66.3617L5.03242 66.3536C5.09683 65.8947 5.24979 65.5485 5.49132 65.315C5.73285 65.0815 6.11125 64.9044 6.61041 64.7756C7.20618 64.6066 7.67313 64.4858 7.99517 64.3972C8.32526 64.3087 8.51043 64.204 8.55069 64.0832L8.6312 64.0671L8.88883 65.621C8.84052 65.7337 8.65536 65.8303 8.34137 65.9108C8.02738 65.9913 7.59263 66.096 7.04516 66.2328C6.56211 66.3536 6.23201 66.5549 6.04684 66.8367C5.86167 67.1104 5.81336 67.5049 5.89387 67.996L6.18371 69.7672L9.47656 69.2278L9.72614 70.7655L1.4578 72.1181ZM5.01632 69.9604L4.68623 67.9557C4.60572 67.4646 4.43665 67.1184 4.16292 66.9011C3.88919 66.6837 3.56715 66.6112 3.1807 66.6756C2.76205 66.74 2.46417 66.9091 2.279 67.1748C2.09383 67.4405 2.03747 67.8189 2.11798 68.31L2.45612 70.371L5.01632 69.9604Z" fill="#E73D21"/>
<path d="M8.74381 59.3973C8.75186 60.0253 8.65525 60.605 8.44592 61.1122C8.2366 61.6275 7.93871 62.0622 7.55227 62.4245C7.16582 62.7868 6.70691 63.0686 6.17555 63.2699C5.64418 63.4711 5.06452 63.5758 4.4446 63.5839C3.81662 63.5919 3.2289 63.5114 2.68948 63.3262C2.15007 63.141 1.69117 62.8754 1.29667 62.5292C0.902171 62.183 0.596232 61.7482 0.362754 61.241C0.129276 60.7338 0.00851451 60.1622 0.000463549 59.5342C-0.00758741 58.9062 0.089028 58.3266 0.306404 57.8194C0.515729 57.3041 0.813615 56.8693 1.20006 56.5071C1.58651 56.1448 2.03736 55.863 2.56872 55.6617C3.10008 55.4604 3.67976 55.3558 4.30773 55.3477C4.92766 55.3397 5.51537 55.4202 6.04673 55.6054C6.58614 55.7905 7.0531 56.0562 7.4476 56.4024C7.8421 56.7566 8.15609 57.1833 8.38152 57.6905C8.61499 58.1978 8.73575 58.7694 8.74381 59.3973ZM7.42345 59.4054C7.4154 58.9948 7.33489 58.6325 7.17387 58.3185C7.01285 58.0045 6.79548 57.7469 6.52175 57.5376C6.24801 57.3363 5.92597 57.1753 5.54757 57.0787C5.16918 56.9821 4.76663 56.9338 4.33188 56.9418C3.89713 56.9499 3.49458 57.0062 3.11618 57.1189C2.74584 57.2316 2.41575 57.3927 2.14202 57.61C1.86829 57.8274 1.65091 58.0931 1.49794 58.4071C1.34497 58.7291 1.27251 59.0914 1.28056 59.502C1.28861 59.9207 1.36913 60.291 1.5382 60.605C1.70727 60.919 1.92465 61.1766 2.20643 61.3859C2.48821 61.5953 2.8183 61.7482 3.1967 61.8529C3.57509 61.9576 3.97763 62.0059 4.41239 61.9978C4.84714 61.9898 5.24969 61.9334 5.62003 61.8126C5.99037 61.6919 6.31241 61.5309 6.5781 61.3135C6.84378 61.0961 7.0531 60.8304 7.20607 60.5084C7.35904 60.1944 7.4315 59.8321 7.42345 59.4054Z" fill="#E73D21"/>
<path d="M0.427368 53.0857L0.652794 51.5479L7.60078 52.5704L8.19654 48.5369L9.54911 48.7381L8.7279 54.3174L0.427368 53.0857Z" fill="#E73D21"/>
<path d="M1.68335 45.5983L2.102 44.1009L8.8648 45.9928L9.96779 42.064L11.2801 42.4343L9.75846 47.8607L1.68335 45.5983Z" fill="#E73D21"/>
<path d="M9.62927 26.7992L11.5776 24.1263C11.9399 23.6352 12.3344 23.2568 12.7772 22.9992C13.22 22.7415 13.687 22.5886 14.1781 22.5403C14.6692 22.492 15.1764 22.5564 15.6917 22.7254C16.2069 22.8945 16.7302 23.1682 17.2455 23.5466C17.7527 23.917 18.1552 24.3195 18.4692 24.7543C18.7832 25.189 18.9925 25.6479 19.0891 26.123C19.1858 26.598 19.1777 27.0971 19.0489 27.6043C18.9201 28.1196 18.6705 28.6268 18.3002 29.134L16.4082 31.7264L9.62927 26.7992ZM17.165 28.4416C17.648 27.7734 17.809 27.1374 17.6319 26.5255C17.4548 25.9136 17.012 25.3581 16.3035 24.8348C15.9493 24.5772 15.6031 24.3839 15.2649 24.2471C14.9268 24.1102 14.5967 24.0458 14.2747 24.0458C13.9526 24.0538 13.6548 24.1344 13.3649 24.2873C13.0751 24.4403 12.8094 24.6899 12.5679 25.028L11.634 26.3081L16.2633 29.6815L17.165 28.4416Z" fill="#E73D21"/>
<path d="M14.6611 19.8593L15.8124 18.7482L19.3387 20.9864C19.5642 21.1313 19.8057 21.3004 20.0633 21.4936C20.321 21.6868 20.5625 21.8639 20.7799 22.0411C21.0375 22.2423 21.2951 22.4517 21.5447 22.661L21.5608 22.6449C21.3676 22.3631 21.1744 22.0813 20.9811 21.7995C20.8201 21.558 20.651 21.3004 20.4739 21.0347C20.2968 20.769 20.1358 20.5194 19.9989 20.294L17.962 16.6872L19.065 15.6244L22.5672 17.8063C22.7846 17.9512 23.0261 18.1202 23.2918 18.3135C23.5574 18.5067 23.807 18.6919 24.0325 18.869C24.3062 19.0783 24.5799 19.2877 24.8456 19.4889L24.8617 19.4728C24.6685 19.2071 24.4753 18.9334 24.282 18.6597C24.113 18.4262 23.9439 18.1686 23.7748 17.9109C23.6058 17.6533 23.4447 17.3957 23.3079 17.1622L21.2227 13.5553L22.374 12.4443L26.5121 20.1008L25.4172 21.1555L21.6091 18.7321C21.4159 18.6194 21.1985 18.4745 20.957 18.2974C20.7155 18.1203 20.4981 17.9592 20.2888 17.7902C20.0472 17.605 19.8057 17.4118 19.5481 17.2185L19.532 17.2346C19.7171 17.4923 19.9023 17.7499 20.0714 17.9914C20.2243 18.2088 20.3854 18.4342 20.5464 18.6838C20.7074 18.9254 20.8443 19.1508 20.957 19.344L23.179 23.289L22.06 24.3678L14.6611 19.8593Z" fill="#E73D21"/>
<path d="M31.8662 16.4215C31.3349 16.7677 30.8035 16.9931 30.256 17.0897C29.7086 17.1863 29.1772 17.1702 28.67 17.0414C28.1547 16.9126 27.6717 16.6791 27.2208 16.3329C26.77 15.9948 26.3674 15.56 26.0293 15.0367C25.6831 14.5054 25.4416 13.974 25.3128 13.4185C25.1839 12.863 25.1598 12.3316 25.2403 11.8083C25.3289 11.293 25.5221 10.7939 25.828 10.3269C26.1339 9.85996 26.5526 9.4574 27.0759 9.11121C27.6073 8.76502 28.1386 8.53958 28.6861 8.45102C29.2336 8.35441 29.7649 8.37051 30.2721 8.49933C30.7794 8.62814 31.2624 8.86164 31.7213 9.19978C32.1722 9.53792 32.5747 9.97267 32.9209 10.504C33.2671 11.0273 33.5006 11.5587 33.6374 12.1142C33.7743 12.6617 33.7985 13.2011 33.7099 13.7244C33.6294 14.2477 33.4281 14.7388 33.1222 15.2058C32.8162 15.6727 32.3976 16.0753 31.8662 16.4215ZM31.1578 15.3185C31.5039 15.0931 31.7616 14.8274 31.9467 14.5215C32.1239 14.2155 32.2285 13.9015 32.2527 13.5553C32.2768 13.2172 32.2366 12.8549 32.1158 12.4926C31.995 12.1223 31.8179 11.76 31.5845 11.3896C31.3429 11.0273 31.0772 10.7134 30.7874 10.4557C30.4895 10.1981 30.1836 10.0129 29.8535 9.90021C29.5234 9.7875 29.1853 9.74723 28.831 9.78749C28.4848 9.82774 28.1306 9.96461 27.7844 10.19C27.4302 10.4235 27.1725 10.6892 26.9954 10.9951C26.8183 11.3011 26.7136 11.6312 26.6895 11.9773C26.6653 12.3235 26.7056 12.6858 26.8263 13.0642C26.939 13.4346 27.1162 13.8049 27.3577 14.1672C27.5992 14.5295 27.8649 14.8354 28.1628 15.0931C28.4607 15.3426 28.7666 15.5198 29.0967 15.6325C29.4268 15.7372 29.7649 15.7694 30.1111 15.7291C30.4573 15.6888 30.8035 15.5439 31.1578 15.3185Z" fill="#E73D21"/>
<path d="M32.6552 5.93088L34.1204 5.28682L38.4438 8.17711C38.6209 8.30592 38.8141 8.44279 39.0154 8.60381C39.2167 8.76483 39.4019 8.90976 39.579 9.04663C39.7803 9.20765 39.9896 9.3767 40.1909 9.53772L40.223 9.52163C40.1023 9.2962 39.9896 9.07076 39.8769 8.85339C39.7722 8.66016 39.6675 8.45084 39.5629 8.22541C39.4582 7.99999 39.3616 7.79066 39.273 7.59744L37.5743 3.75714L38.9269 3.16138L42.3244 10.8259L40.8591 11.4699L36.5518 8.59577C36.3666 8.47501 36.1734 8.33007 35.9721 8.16905C35.7709 8.00803 35.5777 7.86312 35.4086 7.72626C35.2073 7.56524 34.998 7.39618 34.7967 7.23516L34.7726 7.24319C34.8853 7.47667 34.998 7.7021 35.1107 7.91947C35.2153 8.1127 35.32 8.32202 35.4247 8.54745C35.5293 8.77287 35.6259 8.9822 35.7145 9.17542L37.4133 13.0077L36.0607 13.6034L32.6552 5.93088Z" fill="#E73D21"/>
<path d="M37.8157 62.0466C37.6869 62.0466 60.6965 62.5619 60.6965 84.2914C60.6965 84.2914 61.2118 62.0466 83.0621 62.0466" stroke="#E73D1F" stroke-width="2" stroke-miterlimit="10"/>
<path d="M61.6063 29.0535H59.9961V80.9017H61.6063V29.0535Z" fill="#E73D1F"/>
</svg>
